<svg xmlns="http://www.w3.org/2000/svg" width="55" height="55" fill="none" viewBox="0 0 50 50">
  <path fill="#fff" fill-opacity=".95" d="M0 23.474c0 2.754.796 5.21 2.389 7.37 1.593 2.158 3.644 3.647 6.178 4.441l-1.569 4.17c-.072.346.048.545.338.545h5.14l-2.51 9.38h.676l9.58-12.953c.096-.1.096-.224.048-.348-.048-.124-.169-.173-.338-.173h-5.26l5.984-11.514c.145-.347.049-.521-.337-.521h-7.095a.591.591 0 0 0-.313.097.615.615 0 0 0-.218.25l-2.63 7.122c-1.714-.447-3.137-1.414-4.271-2.878-1.135-1.465-1.69-3.127-1.69-4.988 0-2.06.676-3.846 2.027-5.36 1.352-1.514 3.04-2.382 5.068-2.63l1.255-.174c.313 0 .482-.149.482-.422l.17-1.29c.24-2.68 1.327-4.938 3.281-6.75 1.955-1.81 4.247-2.729 6.877-2.729s4.923.918 6.878 2.73c1.979 1.811 3.089 4.07 3.378 6.749l.145 1.44c0 .297.145.446.459.446h3.885c2.196 0 4.054.794 5.598 2.357 1.545 1.563 2.317 3.45 2.317 5.658 0 2.109-.724 3.945-2.148 5.484-1.424 1.538-3.185 2.382-5.285 2.555-.313 0-.482.15-.482.472v3.4c0 .272.169.421.482.421a11.288 11.288 0 0 0 4.489-1.092 11.846 11.846 0 0 0 3.668-2.655 12.417 12.417 0 0 0 2.437-3.895c.603-1.49.917-3.052.917-4.665 0-2.234-.53-4.293-1.617-6.18A12.14 12.14 0 0 0 44 12.872a11.716 11.716 0 0 0-5.97-1.63h-.771c-.797-3.3-2.486-6.005-5.092-8.09C29.561 1.067 26.617 0 23.287 0c-3.403 0-6.443 1.092-9.074 3.25-2.63 2.16-4.32 4.939-5.067 8.338-2.655.645-4.85 2.06-6.588 4.293C.82 18.114 0 20.62 0 23.474ZM19.691 47.94c.008.444.155.872.42 1.222.267.349.636.6 1.052.714.338.074.531.124.603.124.218 0 .507-.074.917-.248.507-.224.845-.67 1.014-1.29l.676-2.606c.144-.546.096-1.067-.194-1.563-.289-.496-.7-.82-1.278-.993a1.824 1.824 0 0 0-1.52.199 2.18 2.18 0 0 0-.99 1.315l-.652 2.481c-.024.422-.048.645-.048.645Zm3.234-11.836c0 .348.12.72.362 1.092.241.372.603.645 1.086.819.53.174 1.061.149 1.544-.124.483-.273.796-.695.965-1.29l.724-2.581a2.078 2.078 0 0 0-.193-1.563 2.21 2.21 0 0 0-1.279-1.018c-.555-.149-1.062-.099-1.568.199-.507.297-.82.72-.99 1.29l-.579 2.506c-.048.422-.072.645-.072.67ZM29.73 40.2c0 .421.12.843.386 1.265.265.422.651.695 1.134.869.048 0 .145.024.29.05.12.024.217.049.29.049.313 0 .627-.05.916-.199.459-.173.796-.645.99-1.414l.603-2.506a2.146 2.146 0 0 0-.145-1.638 2.056 2.056 0 0 0-.5-.648 1.99 1.99 0 0 0-.707-.394 2.18 2.18 0 0 0-1.64.198 1.87 1.87 0 0 0-.893 1.315l-.652 2.556a1.644 1.644 0 0 0-.072.497Zm3.282-11.886c-.025.397.096.769.361 1.166.266.397.652.695 1.183.943.193.1.386.149.627.149.266 0 .531-.075.82-.199.508-.248.846-.72 1.063-1.414l.7-2.556c.048-.323.072-.496.072-.546 0-.422-.12-.819-.386-1.216s-.652-.67-1.183-.819c-.048 0-.145-.024-.265-.05-.145-.074-.241-.074-.314-.074-.41 0-.796.124-1.182.373-.386.248-.652.645-.797 1.19l-.651 2.507c-.024.198-.048.372-.048.546Z"/>
</svg>
