<?xml version="1.0" encoding="UTF-8"?>
<svg xmlns="http://www.w3.org/2000/svg" xmlns:xlink="http://www.w3.org/1999/xlink" viewBox="0 0 50 50" width="50px" height="50px">
<g id="surface67361143">
<path style=" stroke:none;fill-rule:nonzero;fill:rgb(100%,100%,100%);fill-opacity:1;" d="M 15.5 4 C 12.828125 4 10.480469 5.40625 9.152344 7.511719 C 8.953125 7.816406 8.929688 8.203125 9.097656 8.527344 C 9.265625 8.851562 9.59375 9.058594 9.957031 9.070312 C 10.320312 9.078125 10.660156 8.890625 10.847656 8.578125 C 11.820312 7.03125 13.53125 6 15.5 6 C 18.597656 6 21.078125 8.527344 20.996094 11.644531 C 20.921875 14.648438 18.261719 17 15.199219 17 L 4 17 C 3.640625 16.996094 3.304688 17.183594 3.121094 17.496094 C 2.941406 17.808594 2.941406 18.191406 3.121094 18.503906 C 3.304688 18.816406 3.640625 19.003906 4 19 L 15.199219 19 C 19.289062 19 22.890625 15.839844 22.996094 11.695312 C 23.105469 7.480469 19.695312 4 15.5 4 Z M 38 8 C 34.617188 8 31.660156 9.875 30.125 12.644531 C 29.953125 12.957031 29.957031 13.339844 30.140625 13.644531 C 30.324219 13.953125 30.660156 14.136719 31.015625 14.128906 C 31.375 14.125 31.703125 13.929688 31.875 13.613281 C 33.070312 11.460938 35.355469 10 38 10 C 42.023438 10 45.230469 13.351562 44.988281 17.433594 C 44.761719 21.15625 41.46875 24 37.6875 24 L 4 24 C 3.640625 23.996094 3.304688 24.183594 3.121094 24.496094 C 2.941406 24.808594 2.941406 25.191406 3.121094 25.503906 C 3.304688 25.816406 3.640625 26.003906 4 26 L 37.6875 26 C 42.472656 26 46.691406 22.382812 46.980469 17.554688 C 47.296875 12.355469 43.140625 8 38 8 Z M 4 31 C 3.640625 30.996094 3.304688 31.183594 3.121094 31.496094 C 2.941406 31.808594 2.941406 32.191406 3.121094 32.503906 C 3.304688 32.816406 3.640625 33.003906 4 33 L 25.199219 33 C 28.261719 33 30.921875 35.351562 30.996094 38.351562 C 31.078125 41.472656 28.597656 44 25.5 44 C 23.53125 44 21.820312 42.96875 20.847656 41.417969 C 20.660156 41.109375 20.320312 40.921875 19.957031 40.929688 C 19.59375 40.941406 19.265625 41.148438 19.097656 41.472656 C 18.929688 41.796875 18.953125 42.183594 19.152344 42.484375 C 20.480469 44.59375 22.828125 46 25.5 46 C 29.695312 46 33.105469 42.519531 32.996094 38.300781 C 32.890625 34.160156 29.289062 31 25.199219 31 Z M 4 31 "/>
</g>
</svg>
