<?xml version="1.0" standalone="no"?>
<!DOCTYPE svg PUBLIC "-//W3C//DTD SVG 20010904//EN"
 "http://www.w3.org/TR/2001/REC-SVG-20010904/DTD/svg10.dtd">
<svg version="1.0" xmlns="http://www.w3.org/2000/svg"
 width="700.000000pt" height="700.000000pt" viewBox="0 0 700.000000 700.000000"
 preserveAspectRatio="xMidYMid meet">
<metadata>
Created by potrace 1.14, written by Peter Selinger 2001-2017
</metadata>
<g transform="translate(0.000000,700.000000) scale(0.100000,-0.100000)"
fill="#000000" stroke="none">
<path d="M3735 6224 c-23 -8 -88 -50 -145 -93 -232 -174 -429 -409 -558 -666
-36 -73 -110 -258 -117 -295 -2 -8 -10 -40 -18 -70 -14 -49 -26 -107 -42 -195
-12 -67 -19 -187 -18 -300 l0 -120 -51 -2 c-428 -20 -819 -309 -966 -713 -17
-44 -34 -100 -39 -123 -6 -23 -13 -55 -16 -72 -4 -16 -9 -113 -12 -215 -3
-102 -6 -186 -7 -186 0 -1 -62 -4 -136 -7 -179 -7 -262 -29 -426 -109 -271
-133 -487 -446 -520 -752 -12 -112 -4 -279 17 -332 4 -13 6 -24 4 -24 -8 0 46
-142 78 -205 139 -279 413 -479 720 -528 66 -11 417 -13 1757 -12 921 1 1687
5 1703 9 211 50 381 188 467 379 52 116 72 259 50 367 -6 30 -13 66 -16 79 -8
37 -59 146 -93 195 -61 89 -176 184 -268 222 -27 12 -33 19 -27 32 21 47 73
212 78 247 3 22 5 41 6 41 0 1 17 5 38 9 20 4 83 22 139 40 311 103 581 278
805 522 80 87 169 205 195 258 29 58 30 144 3 200 -27 55 -96 118 -147 133
-22 6 -112 11 -213 11 -96 0 -184 2 -195 4 -11 3 -45 8 -75 12 -204 25 -452
106 -638 207 -395 215 -718 580 -872 988 -18 47 -36 94 -40 105 -8 19 -42 154
-55 220 -20 100 -33 251 -32 395 0 184 -8 218 -66 278 -66 69 -168 95 -252 66z
m-690 -1984 c292 -69 531 -286 625 -570 16 -47 32 -98 35 -115 5 -23 15 -339
15 -477 0 -14 14 -16 108 -14 l107 1 1 40 c1 22 2 48 3 58 2 28 106 122 179
160 96 50 169 67 277 63 291 -11 513 -232 521 -521 4 -109 -6 -158 -50 -250
-44 -93 -54 -103 -110 -100 -54 4 -54 4 -54 -127 0 -60 3 -88 11 -89 7 0 48
-2 92 -3 100 -4 178 -26 242 -69 135 -91 205 -226 199 -384 -7 -182 -124 -339
-298 -400 -51 -17 -129 -18 -1738 -18 l-1685 0 -80 23 c-619 179 -773 968
-262 1351 80 60 214 123 287 135 14 2 42 7 62 11 20 4 176 8 347 8 l310 1 0
108 1 108 -48 1 c-26 0 -75 0 -109 -1 l-63 -1 0 154 c0 174 15 266 61 388 111
290 396 511 709 548 85 11 217 3 305 -19z"/>
<path d="M1747 5648 c-9 -18 -19 -46 -23 -63 -26 -111 -88 -173 -210 -210 -86
-27 -109 -49 -94 -90 11 -30 27 -40 109 -64 106 -32 157 -85 195 -203 27 -86
37 -98 80 -98 31 0 50 25 66 85 17 67 42 114 76 149 36 35 64 50 139 71 72 21
95 39 95 75 0 34 -22 53 -80 69 -144 42 -201 101 -236 248 -10 42 -33 63 -69
63 -27 0 -35 -6 -48 -32z"/>
<path d="M1164 4682 c-6 -9 -19 -44 -29 -77 -24 -85 -78 -136 -171 -165 -78
-23 -100 -46 -81 -87 7 -16 30 -28 81 -43 87 -27 148 -81 166 -150 22 -82 39
-110 70 -110 36 0 45 13 70 93 28 89 74 136 161 162 74 21 99 39 99 70 0 30
-26 50 -83 64 -97 23 -152 77 -177 172 -17 64 -36 89 -68 89 -15 0 -32 -8 -38
-18z"/>
<path d="M1640 875 l0 -110 1415 1 c778 0 1418 4 1422 8 9 8 11 205 3 207 -3
1 -643 2 -1422 3 l-1418 1 0 -110z"/>
</g>
</svg>
